<?xml version="1.0" standalone="no"?>
<!DOCTYPE svg PUBLIC "-//W3C//DTD SVG 1.1//EN" "http://www.w3.org/Graphics/SVG/1.1/DTD/svg11.dtd" >
<svg xmlns="http://www.w3.org/2000/svg">
<metadata>
This is a custom SVG webfont generated by Font Squirrel.
Copyright   : Copyright DoubleAlex Team      All rights reserved
Foundry     : bleAlex Team
</metadata>
<defs>
<font id="BlagovestRegular" horiz-adv-x="1044" >
<font-face units-per-em="2048" ascent="1638" descent="-410" />
<missing-glyph horiz-adv-x="569" />
<glyph unicode=" "  horiz-adv-x="569" />
<glyph unicode="&#x09;" horiz-adv-x="569" />
<glyph unicode="&#xa0;" horiz-adv-x="569" />
<glyph unicode="&#x22;" horiz-adv-x="819" d="M150 946v504h194v-504h-194zM475 946v504h195v-504h-195z" />
<glyph unicode="'" horiz-adv-x="569" d="M188 946v504h195v-504h-195z" />
<glyph unicode="," horiz-adv-x="569" d="M100 -256l131 502h238l-229 -502h-140z" />
<glyph unicode="-" horiz-adv-x="819" d="M23 651q23 49 43 82t55 59.5t55.5 39t79.5 42.5h416q18 0 35.5 7.5t40 24t28.5 20.5q-8 -86 -55 -144.5t-133 -109.5h-453q-61 -3 -112 -21z" />
<glyph unicode="." horiz-adv-x="569" d="M166 0l61 246h238l-62 -246h-237z" />
<glyph unicode="/" horiz-adv-x="796" d="M25 0l680 1479h92l-680 -1479h-92z" />
<glyph unicode="0" d="M61 717q0 377 461 762q94 -88 161 -160t143.5 -173.5t116.5 -210t40 -218.5q0 -109 -39 -212.5t-114.5 -200.5t-132 -155.5t-146.5 -142.5q-20 -18 -29 -26q-199 188 -268 274q-193 234 -193 463zM344 717q0 -168 47 -374t131 -286q86 84 132 287t46 373q0 143 -54 365.5 t-124 344.5q-88 -123 -133 -331.5t-45 -378.5z" />
<glyph unicode="1" d="M248 1192v45q115 23 221 99.5t160 144.5h41v-1481h-256v1106q0 43 -51.5 69.5t-114.5 16.5z" />
<glyph unicode="2" d="M70 0v43q139 123 309 356q250 340 250 680q0 264 -189 264q-154 0 -260 -180l-33 21q59 143 166 221t236 78q166 0 261 -114t95 -275q0 -96 -72.5 -220t-218.5 -305l-323 -401h430q98 0 138 28.5t93 120.5l13 -10q-31 -162 -76 -307h-819z" />
<glyph unicode="3" d="M119 1210q53 123 163.5 196t241.5 73q141 0 233.5 -89.5t92.5 -203.5q0 -201 -215 -312q127 -10 222 -120.5t95 -266.5q0 -96 -45 -185t-103.5 -144.5t-137 -104.5t-118.5 -66.5t-77 -31.5q-143 -55 -190 -94q-49 -41 -82 -109h-74q66 121 264 242q121 74 203 192.5 t82 282.5q0 109 -13.5 172.5t-49.5 92t-70.5 34.5t-106.5 6q-59 0 -147 -41l-17 41q98 45 201.5 156.5t103.5 240.5q0 96 -48 147.5t-111 51.5q-152 0 -258 -160h-39z" />
<glyph unicode="4" d="M55 408v73q102 172 175 445.5t73 552.5h291q0 -72 -13.5 -148t-29.5 -136t-53 -140t-60.5 -127t-75 -130t-73 -116t-79.5 -118t-73 -105h418v475q203 33 254 90v-565h168l-2 -51h-164v-408h-256v408h-500z" />
<glyph unicode="5" d="M127 854l149 555q391 49 588 74q-80 -125 -51 -226l-518 -57l-37 -129q6 2 25 0l190 -24q55 -6 111.5 -23.5t124 -57.5t119 -94.5t86 -143.5t34.5 -200q0 -125 -51 -237.5t-134 -193.5t-187.5 -141t-215 -92t-213.5 -36v33q227 29 393.5 198.5t166.5 395.5 q0 90 -31 159.5t-80 112.5t-116.5 71.5t-135.5 41t-141 14.5h-76z" />
<glyph unicode="6" d="M68 664q0 252 221 509t491 306v-21q-147 -100 -224 -163.5t-130 -149.5t-67.5 -181.5t-14.5 -252.5q0 -59 4 -111.5t16.5 -108t19.5 -88t31.5 -95t34 -85t43 -99.5t44.5 -99q10 27 44.5 86t51.5 94q76 172 76 274q0 135 -61.5 227.5t-194.5 92.5q-23 0 -62 -6 q111 78 230 77q152 0 253 -77.5t101 -239.5q0 -59 -30 -119.5t-55.5 -91.5t-84.5 -92q-29 -31 -84 -86t-103.5 -104.5t-89.5 -98.5q-76 127 -172 244q-10 12 -65 63t-99.5 99.5t-84 130.5t-39.5 166z" />
<glyph unicode="7" d="M55 1178q6 20 74 303q150 -14 389 -15q371 0 494 15q-225 -313 -338 -739.5t-113 -741.5h-352q133 567 573 1255h-442q-68 0 -104.5 -2t-83 -20.5t-64.5 -54.5h-33z" />
<glyph unicode="8" d="M80 358q0 82 22.5 145.5t72.5 113t90 76t114 69.5q-111 76 -171.5 154.5t-60.5 191.5q0 160 112 267.5t273 107.5q135 0 240 -94.5t105 -227.5q0 -111 -54.5 -186.5t-154.5 -143.5q72 -51 112.5 -84.5t91 -88t74 -117t23.5 -135.5q0 -203 -133.5 -313.5t-319.5 -110.5 q-176 0 -306 91.5t-130 284.5zM279 358q0 -119 80.5 -219t172.5 -100q70 0 123.5 90t53.5 250q0 102 -60.5 173t-177.5 148q-192 -143 -192 -342zM391 1182q0 -84 48 -150.5t139 -134.5q117 111 116 285q0 96 -42 161.5t-120 65.5q-74 0 -107.5 -69.5t-33.5 -157.5z" />
<glyph unicode="9" d="M61 881q0 59 30 119.5t56.5 92t85.5 93.5q6 6 109.5 116.5t165.5 172.5q39 -47 101.5 -133.5t86.5 -112.5q2 -2 62.5 -60.5t97.5 -102.5t75 -128t38 -168q0 -401 -342 -676q-121 -96 -259.5 -159.5t-246.5 -77.5v18q307 184 433 389t126 551q0 63 -20.5 149.5t-42 145.5 t-61.5 164.5t-52 136.5q-12 -31 -43 -92l-45 -90q-88 -201 -88 -275q0 -90 19.5 -168.5t76.5 -141t147 -62.5q27 0 62 8q-111 -78 -230 -78q-143 0 -242.5 100.5t-99.5 268.5z" />
<glyph unicode=":" horiz-adv-x="569" d="M166 0l61 246h238l-62 -246h-237zM166 860l61 246h238l-62 -246h-237z" />
<glyph unicode=";" horiz-adv-x="569" d="M100 -256l131 502h238l-229 -502h-140zM166 860l61 246h238l-62 -246h-237z" />
<glyph unicode="A" horiz-adv-x="1122" d="M41 121q0 303 156 575q162 285 495 637v144h287v-1477h-287v317q-98 -127 -268 -231t-309 -104q-74 0 -74 139zM289 440q0 -66 41 -116t131 -50q45 0 87 17.5t66.5 36t77.5 61.5v862q-182 -215 -292.5 -409.5t-110.5 -401.5z" />
<glyph unicode="B" horiz-adv-x="1206" d="M143 0v1479h969v-52q-96 -84 -96 -286v-11h-43v11q0 98 -92.5 192t-196.5 94h-254v-452q295 -70 499 -322t236 -653h-1022zM430 51h180q109 0 162 80t53 205q0 236 -101 387t-294 192v-864z" />
<glyph unicode="a" horiz-adv-x="954" d="M31 84q0 205 133 403q131 197 405 447v100h262v-1034h-262v221q-80 -88 -219 -160.5t-254 -72.5q-65 0 -65 96zM270 317q0 -115 133 -114q31 0 58.5 9t47 20.5t60.5 39.5v605q-299 -304 -299 -560z" />
<glyph unicode="e" horiz-adv-x="974" d="M61 483q0 131 51.5 236.5t109 160t155.5 130t137 112.5q57 -51 126 -75.5t101 -69.5q29 -37 49.5 -93.5t38.5 -70.5q12 -10 35 -18.5t36 -13.5t13 -15q0 -6 -11 -16.5t-34.5 -22.5t-52.5 -12q-47 0 -113.5 21.5t-101.5 60.5q-37 41 -52.5 132t-33.5 124 q-121 -100 -161 -201q-27 -69 -27 -160q0 -42 6 -90q102 43 219 43q104 0 182 -31.5t108.5 -62.5t61.5 -78h-262q-2 51 -31.5 85t-79.5 34q-74 0 -178 -37q20 -43 96 -153.5t76 -170.5q0 -4 1 -34.5t0 -45t-10 -45t-26 -61.5q78 53 105 102q53 98 147 99q35 0 67 -37t32 -72 q0 -8 -1 -10t-6.5 -4t-17.5 -2t-41 7t-37 7q-74 0 -119 -41q-102 -98 -184 -133q-4 102 -43 145q-25 27 -87 71t-111.5 81t-90.5 98t-41 127z" />
<glyph unicode="g" horiz-adv-x="831" d="M123 0v1034h708v-51q-76 -66 -75 -328v-10h-43v10q0 121 -65.5 224.5t-203.5 103.5h-59v-983h-262z" />
<glyph unicode="l" horiz-adv-x="972" d="M41 59q0 170 180 398.5t367 339.5v237h262v-1034h-262v748q-274 -225 -275 -480q0 -168 49 -268h-311q-10 16 -10 59z" />
<glyph unicode="o" horiz-adv-x="929" d="M61 313q0 172 81 349.5t214 294t273 116.5q102 0 170.5 -86t68.5 -192q0 -170 -76.5 -357.5t-215 -322.5t-289.5 -135q-113 0 -169.5 101t-56.5 232zM342 223q0 -39 24.5 -68.5t63.5 -29.5q63 0 111.5 47t48.5 109v546q0 49 -26.5 87t-78.5 38q-57 0 -100 -55t-43 -123 v-551z" />
<glyph unicode="s" horiz-adv-x="978" d="M61 475q0 106 29 192.5t83 152t104.5 110.5t122 101t108.5 91q55 -49 161.5 -96t141.5 -92q43 -53 55 -119h-284q13 58 12 88q0 13 -2 22q-8 26 -84 128q-119 -100 -154 -181t-35 -251q0 -61 99.5 -205t99.5 -185v-23v-31q0 -9 -2 -30.5t-6 -37t-12.5 -38t-20.5 -42.5 q115 82 156 149q20 34 20 79.5t-20 102.5h285q-25 -70 -99 -157q-141 -164 -391 -242q-4 102 -43 145q-25 27 -86 70t-109.5 79t-88.5 95t-40 125z" />
<glyph unicode="t" horiz-adv-x="993" d="M0 983v51h993v-51q-76 -63 -75 -287v-10h-44v10q0 115 -58 201t-187 86v-983h-260v983q-129 0 -189.5 -86t-60.5 -201v-10h-43v10q0 221 -76 287z" />
<glyph unicode="v" horiz-adv-x="976" d="M123 0v672q0 135 117.5 247.5t268 167t277.5 54.5q100 0 101 -97q0 -82 -157 -237.5t-345 -249.5q485 -119 551 -557h-813zM385 51h254v12q0 352 -254 459v-471zM385 604q135 102 189.5 166t54.5 143q0 117 -107 117q-53 0 -95 -70.5t-42 -156.5v-199z" />
<glyph unicode="&#xa9;" horiz-adv-x="1638" d="M74 717q0 307 214 521t531.5 214t531.5 -214t214 -521q0 -309 -214 -523t-531.5 -214t-531.5 214t-214 523zM158 717q0 -285 195.5 -483.5t467.5 -198.5q270 0 467 199.5t197 482.5q0 279 -196.5 476.5t-467.5 197.5q-272 0 -467.5 -196.5t-195.5 -477.5zM539 649 q0 63 14 119.5t51 113t58.5 84t77 86t63.5 68.5q35 -35 99.5 -67.5t84.5 -65.5q27 -39 35 -86q-84 14 -150 0q4 16 5 43q0 20 -5.5 34.5t-12.5 24t-23.5 31t-32.5 45.5q-37 -37 -59.5 -62.5t-48 -86t-25.5 -129.5q0 -82 66.5 -175.5t66.5 -140.5q0 -106 -27 -159 q59 31 91 64.5t39 57t7 54.5q0 41 -10 73q84 -12 150 0q-16 -49 -60 -112q-88 -117 -239 -172q0 74 -27 104q-14 18 -67.5 59.5t-87 88.5t-33.5 106z" />
<glyph unicode="&#xab;" horiz-adv-x="972" d="M98 475l391 332l27 -23l-197 -309l183 -330l-23 -26zM410 475l391 332l26 -23l-196 -309l182 -330l-22 -26z" />
<glyph unicode="&#xad;" horiz-adv-x="819" d="M23 651q23 49 43 82t55 59.5t55.5 39t79.5 42.5h416q18 0 35.5 7.5t40 24t28.5 20.5q-8 -86 -55 -144.5t-133 -109.5h-453q-61 -3 -112 -21z" />
<glyph unicode="&#xae;" horiz-adv-x="1638" d="M74 717q0 307 214 521t531.5 214t531.5 -214t214 -521q0 -309 -214 -523t-531.5 -214t-531.5 214t-214 523zM158 717q0 -285 195.5 -483.5t467.5 -198.5q270 0 467 199.5t197 482.5q0 279 -196.5 476.5t-467.5 197.5q-272 0 -467.5 -196.5t-195.5 -477.5zM590 324v477 q0 141 134 237.5t261 96.5q63 0 63.5 -68t-105 -166t-210.5 -158v-4q109 -51 233 -174t124 -237v-4h-187q4 33 4 53q0 129 -45 207t-129 133v-393h-143zM733 768q53 43 83 70.5t60.5 73.5t30.5 85q0 80 -63 80q-37 0 -74 -59.5t-37 -140.5v-109z" />
<glyph unicode="&#xbb;" horiz-adv-x="972" d="M137 784l27 23l391 -332l-381 -356l-22 26l182 330zM449 784l26 23l391 -332l-381 -356l-22 26l182 330z" />
<glyph unicode="&#x401;" horiz-adv-x="1134" d="M61 668q0 106 27 208.5t64.5 178t101 162t111 138.5t122 131t107.5 118q68 -59 149.5 -90t122.5 -87q33 -45 58.5 -112.5t46.5 -83.5q16 -12 42.5 -21.5t43 -15.5t16.5 -18q0 -8 -9 -20.5t-38 -27t-72 -14.5q-57 0 -137 25.5t-121 72.5q-43 49 -61.5 159t-40.5 149 q-152 -147 -201 -273.5t-49 -355.5q0 -12 4 -41q133 59 270 59q92 0 166 -20.5t125.5 -59t80 -70.5t59.5 -77h-291q-18 90 -54 130t-110 40q-92 0 -229 -59q23 -55 83 -141.5t103 -166t43 -153.5q0 -6 2 -55.5t1 -78t-12.5 -78.5t-33.5 -93q96 66 139 143q25 47 87.5 91 t117.5 44q41 0 80 -44t39 -85q0 -12 -4 -16t-27 -4q-14 0 -48 8t-44 8q-100 0 -172 -68q-123 -119 -221 -159q-4 147 -54 209q-29 37 -102.5 96t-129.5 107.5t-103.5 132.5t-47.5 178zM303 1720l62 209h186l-62 -209h-186zM688 1720l62 209h186l-62 -209h-186z" />
<glyph unicode="&#x402;" horiz-adv-x="1388" d="M0 1427q2 35 0 52h1212v-52q-96 -84 -96 -286v-11h-43v11q0 102 -86 194t-203 92h-34v-657q113 86 258 151.5t243 65.5q74 0 74 -137q0 -248 -100.5 -525.5t-235.5 -437.5h-43q66 113 110 298.5t44 275.5q0 143 -51.5 213.5t-182.5 70.5q-49 0 -116 -45v-700h-287v1427 h-35q-90 0 -189.5 -96t-99.5 -190v-11h-43v11q0 202 -96 286z" />
<glyph unicode="&#x403;" horiz-adv-x="1036" d="M143 0v1479h887v-52q-96 -84 -96 -286v-11h-43v11q0 98 -94.5 192t-194.5 94h-172v-1427h-287zM463 1604l211 344h237l-350 -344h-98z" />
<glyph unicode="&#x404;" horiz-adv-x="1150" d="M61 662q0 106 27 209.5t62.5 179t100 164t110 139.5t122 133t107.5 117q59 -59 136 -101.5t138.5 -78t96.5 -89.5q51 -78 67 -172q-100 16 -151.5 17.5t-145.5 -17.5q6 33 6 88q0 51 -11 78t-56 82t-80 111q-55 -53 -87 -90t-80 -109t-72.5 -162t-24.5 -196 q0 -61 12 -111h399v-51h-383q27 -76 88.5 -163t104.5 -162t43 -146v-50v-48q0 -13 -1 -40.5t-4 -43t-9.5 -40t-15.5 -47t-23 -49.5q90 47 149 95.5t84 95.5t33 80.5t8 79.5q0 88 -18 149q166 -27 297 0q-31 -102 -119 -225q-82 -113 -215 -205t-262 -139q-4 147 -54 209 q-29 37 -101.5 95t-128.5 105t-102.5 130.5t-46.5 177.5z" />
<glyph unicode="&#x406;" horiz-adv-x="573" d="M143 0v1479h287v-1479h-287zM143 1720l62 209h278l-61 -209h-279z" />
<glyph unicode="&#x407;" horiz-adv-x="573" d="M-27 1720l62 209h186l-61 -209h-187zM143 0v1479h287v-1479h-287zM358 1720l62 209h186l-61 -209h-187z" />
<glyph unicode="&#x409;" horiz-adv-x="1714" d="M41 84q0 242 218 560.5t448 477.5v357h286v-449q121 -53 280 -212t276.5 -349t117.5 -313q0 -74 -36 -115t-99 -41h-825v1069q-176 -172 -255 -321.5t-87 -364.5q-8 -217 59 -383h-371q-12 23 -12 84zM993 51h187q86 0 128 36t42 130q0 197 -100.5 426t-256.5 330v-922z " />
<glyph unicode="&#x40a;" horiz-adv-x="1820" d="M143 0v1479h287v-377q63 41 194.5 39t188.5 -39v377h287v-449q121 -53 279.5 -212t276.5 -349t118 -313q0 -74 -36 -115t-100 -41h-825v1040q-61 39 -186 40t-197 -40v-1040h-287zM1100 51h186q86 0 128 36t42 130q0 197 -100.5 426t-255.5 330v-922z" />
<glyph unicode="&#x40b;" horiz-adv-x="1470" d="M0 1427q2 35 0 52h1212v-52q-96 -84 -96 -286v-11h-43v11q0 102 -86 194t-203 92h-34v-526q168 0 322.5 -114.5t248.5 -304t94 -398.5q0 -61 -12 -84h-371q59 145 60 383q0 203 -96.5 334t-245.5 131v-848h-287v1427h-35q-90 0 -189.5 -96t-99.5 -190v-11h-43v11 q0 202 -96 286z" />
<glyph unicode="&#x40c;" horiz-adv-x="1204" d="M143 0v1479h287v-428h4l137 227q127 205 258 205q53 0 104.5 -19.5t59.5 -44.5q-10 -29 -14 -71.5t-3 -75.5t2 -81t1 -63h-45q0 72 -62.5 132.5t-132.5 60.5q-61 0 -147 -125l-162 -233l344 -254q166 -123 277.5 -292t111.5 -333q0 -47 -12 -84h-344q27 76 27 158 q0 350 -162 510l-238 227h-4v-895h-287zM463 1604l211 344h237l-350 -344h-98z" />
<glyph unicode="&#x40e;" horiz-adv-x="1185" d="M31 1479h344q84 -119 203.5 -422t134.5 -465h4l368 887h76l-549 -1332q-27 -63 -86 -105t-149 -42q-41 0 -91 24.5t-81 53.5q78 143 92 268h20q2 -2 21.5 -53t36.5 -68q41 -41 90 -41q76 0 104 68l142 315h-291q-80 455 -389 912zM416 1675l110 168q96 -23 179 -22 q141 0 325 45q-61 -88 -143 -139.5t-160 -51.5q-29 0 -81 8.5t-81 8.5q-83 -1 -149 -17z" />
<glyph unicode="&#x40f;" horiz-adv-x="1290" d="M143 0v1479h287v-1428h383v1428h287v-1479h-316v-262h-286v262h-355z" />
<glyph unicode="&#x410;" horiz-adv-x="1122" d="M41 121q0 303 156 575q162 285 495 637v144h287v-1477h-287v317q-98 -127 -268 -231t-309 -104q-74 0 -74 139zM289 440q0 -66 41 -116t131 -50q45 0 87 17.5t66.5 36t77.5 61.5v862q-182 -215 -292.5 -409.5t-110.5 -401.5z" />
<glyph unicode="&#x411;" horiz-adv-x="1206" d="M143 0v1479h969v-52q-96 -84 -96 -286v-11h-43v11q0 98 -92.5 192t-196.5 94h-254v-452q295 -70 499 -322t236 -653h-1022zM430 51h180q109 0 162 80t53 205q0 236 -101 387t-294 192v-864z" />
<glyph unicode="&#x412;" horiz-adv-x="1161" d="M143 0v958q0 147 82 278.5t206 214.5t258 131t247 48q125 0 125 -139q0 -113 -201 -337t-430 -357q608 -178 690 -797h-977zM430 51h340v39q0 227 -85 404.5t-255 259.5v-703zM430 844q174 154 261 266.5t87 222.5q0 190 -129 191q-68 0 -143.5 -117t-75.5 -236v-327z " />
<glyph unicode="&#x413;" horiz-adv-x="1036" d="M143 0v1479h887v-52q-96 -84 -96 -286v-11h-43v11q0 98 -94.5 192t-194.5 94h-172v-1427h-287z" />
<glyph unicode="&#x414;" horiz-adv-x="1214" d="M-8 0v51h190q0 614 568 1249v179h286v-1428h191v-51q-76 -66 -76 -328v-10h-43v10q0 117 -75 222.5t-214 105.5h-399q-141 0 -225 -107.5t-84 -220.5v-10h-43v10q0 262 -76 328zM254 51h496v1151q-86 -106 -137.5 -177t-128 -194.5t-121 -231t-77 -253t-32.5 -295.5z" />
<glyph unicode="&#x415;" horiz-adv-x="1134" d="M61 668q0 106 27 208.5t64.5 178t101 162t111 138.5t122 131t107.5 118q68 -59 149.5 -90t122.5 -87q33 -45 58.5 -112.5t46.5 -83.5q16 -12 42.5 -21.5t43 -15.5t16.5 -18q0 -8 -9 -20.5t-38 -27t-72 -14.5q-57 0 -137 25.5t-121 72.5q-43 49 -61.5 159t-40.5 149 q-152 -147 -201 -273.5t-49 -355.5q0 -12 4 -41q133 59 270 59q92 0 166 -20.5t125.5 -59t80 -70.5t59.5 -77q-133 25 -291 0q-18 90 -54 130t-110 40q-92 0 -229 -59q23 -55 83 -141.5t103 -166t43 -153.5q0 -6 2 -55.5t1 -78t-12.5 -78.5t-33.5 -93q96 66 139 143 q25 47 87.5 91t117.5 44q41 0 80 -44t39 -85q0 -12 -4 -16t-27 -4q-14 0 -48 8t-44 8q-100 0 -172 -68q-123 -119 -221 -159q-4 147 -54 209q-29 37 -102.5 96t-129.5 107.5t-103.5 132.5t-47.5 178z" />
<glyph unicode="&#x416;" horiz-adv-x="1810" d="M33 84q0 164 111.5 333t277.5 292l344 254l-162 233q-86 125 -147 125q-70 0 -132.5 -60.5t-62.5 -132.5h-45q0 14 1 63.5t1 81.5t-4 75t-14 71q10 27 60 45.5t106 18.5q68 0 136 -59.5t120 -145.5l139 -227h4v428h287v-428h4l137 227q51 86 119.5 145.5t138.5 59.5 q53 0 103.5 -18.5t60.5 -45.5q-10 -29 -14.5 -71.5t-4.5 -74.5t1 -81t1 -64h-45q0 72 -62 132.5t-132 60.5q-57 0 -148 -125l-159 -233l342 -254q166 -123 278.5 -292t112.5 -333q0 -47 -12 -84h-344q27 76 26 158q0 350 -164 510l-235 227h-4v-895h-287v895h-4l-238 -227 q-162 -160 -162 -510q0 -82 27 -158h-344q-12 37 -12 84z" />
<glyph unicode="&#x417;" horiz-adv-x="1062" d="M-20 -182q18 35 29 52t44 59t81 75t110 55q25 8 87 27.5t100 33t93.5 43.5t87 65.5t55 94t23.5 132.5q0 299 -151 299q-10 0 -18.5 -1t-15.5 -4.5t-13.5 -6.5t-11.5 -9t-8 -8t-7 -10t-6 -10.5t-6 -10.5t-4 -10h-80q20 53 124.5 126t127.5 95q96 96 96 303q0 315 -213 316 q-195 0 -170 -449q-59 57 -113.5 86t-146.5 56q6 84 49 153q57 96 184 154q150 68 215 129q55 -66 150 -111q12 -6 67.5 -25.5t97.5 -45t68 -62.5q55 -84 56 -201q0 -127 -110 -235.5t-210 -145.5v-6q57 -4 116.5 -31.5t116 -76.5t92 -134t35.5 -190q0 -172 -143 -283.5 t-319 -111.5q-41 0 -105.5 13t-107.5 13q-170 0 -273 -202h-73z" />
<glyph unicode="&#x418;" horiz-adv-x="1247" d="M143 0v1479h287v-598q311 297 379 598h295v-1479h-287v1325h-2q-55 -137 -159.5 -279.5t-225.5 -234.5v-811h-287z" />
<glyph unicode="&#x419;" horiz-adv-x="1247" d="M143 0v1479h287v-598q311 297 379 598h295v-1479h-287v1325h-2q-55 -137 -159.5 -279.5t-225.5 -234.5v-811h-287zM375 1675l110 168q96 -23 179 -22q141 0 325 45q-61 -88 -143 -139.5t-160 -51.5q-29 0 -81 8.5t-81 8.5q-83 -1 -149 -17z" />
<glyph unicode="&#x41a;" horiz-adv-x="1204" d="M143 0v1479h287v-428h4l137 227q127 205 258 205q53 0 104.5 -19.5t59.5 -44.5q-10 -29 -14 -71.5t-3 -75.5t2 -81t1 -63h-45q0 72 -62.5 132.5t-132.5 60.5q-61 0 -147 -125l-162 -233l344 -254q166 -123 277.5 -292t111.5 -333q0 -47 -12 -84h-344q27 76 27 158 q0 350 -162 510l-238 227h-4v-895h-287z" />
<glyph unicode="&#x41b;" horiz-adv-x="1136" d="M41 84q0 242 218 560.5t448 477.5v357h286v-1479h-286v1069q-176 -172 -255 -321.5t-87 -364.5q-8 -217 59 -383h-371q-12 23 -12 84z" />
<glyph unicode="&#x41c;" horiz-adv-x="1769" d="M20 84q0 242 218.5 560.5t447.5 477.5v357h287v-598q285 270 358 598h295v-1479h-287v1325h-2q-135 -336 -364 -514v-811h-287v1069q-176 -172 -255 -321.5t-87 -364.5q-8 -217 59 -383h-370q-13 23 -13 84z" />
<glyph unicode="&#x41d;" horiz-adv-x="1243" d="M143 0v1479h287v-377q63 41 194.5 39t188.5 -39v377h287v-1479h-287v1040q-61 39 -186 40t-197 -40v-1040h-287z" />
<glyph unicode="&#x41e;" horiz-adv-x="1054" d="M72 449q0 246 89 498.5t237.5 419.5t303.5 167q125 0 203 -122t78 -277q0 -242 -87 -511.5t-240.5 -462t-321.5 -192.5q-92 0 -153.5 77t-85 180.5t-23.5 222.5zM377 289q0 -55 29.5 -98.5t76.5 -43.5q78 0 136.5 68t58.5 156v833q0 70 -32 124t-93 54q-74 0 -125 -78.5 t-51 -175.5v-839z" />
<glyph unicode="&#x41f;" horiz-adv-x="1243" d="M143 0v1479h957v-1479h-287v1427h-383v-1427h-287z" />
<glyph unicode="&#x420;" horiz-adv-x="1062" d="M123 0v958q0 147 82 278.5t206 214.5t258 131t246 48q125 0 125 -139t-226 -442.5t-404 -436.5v-612h-287zM410 676q348 369 348 649q0 190 -129 191q-61 0 -140 -158t-79 -279v-403z" />
<glyph unicode="&#x421;" horiz-adv-x="1150" d="M61 662q0 106 27 209.5t62.5 179t100 164t110 139.5t122 133t107.5 117q59 -59 136 -101.5t138.5 -78t96.5 -89.5q51 -78 67 -172q-100 16 -151.5 17.5t-145.5 -17.5q6 33 6 88q0 51 -11 78t-56 82t-80 111q-55 -53 -87 -90t-80 -109t-72.5 -162t-24.5 -196 q0 -102 41 -196.5t91 -155t91 -136.5t41 -145v-50v-48q0 -13 -1 -40.5t-4 -43t-9.5 -40t-15.5 -47t-23 -49.5q90 47 149 95.5t84 95.5t33 80.5t8 79.5q0 88 -18 149q166 -27 297 0q-31 -102 -119 -225q-82 -113 -215 -205t-262 -139q-4 147 -54 209q-29 37 -101.5 95 t-128.5 105t-102.5 130.5t-46.5 177.5z" />
<glyph unicode="&#x422;" horiz-adv-x="1212" d="M0 1427q2 35 0 52h1212v-52q-96 -84 -96 -286v-11h-43v11q0 102 -86 194t-203 92h-34v-1427h-287v1427h-35q-90 0 -189.5 -96t-99.5 -190v-11h-43v11q0 202 -96 286z" />
<glyph unicode="&#x423;" horiz-adv-x="1185" d="M31 1479h344q84 -119 203.5 -422t134.5 -465h4l368 887h76l-549 -1332q-27 -63 -86 -105t-149 -42q-41 0 -91 24.5t-81 53.5q78 143 92 268h20q2 -2 21.5 -53t36.5 -68q41 -41 90 -41q76 0 104 68l142 315h-291q-80 455 -389 912z" />
<glyph unicode="&#x424;" horiz-adv-x="1589" d="M20 1302.5q0 139.5 125 139.5q111 0 252.5 -48t253.5 -132v217h287v-217q113 84 254 132t252 48q125 0 125 -139.5t-226.5 -442.5t-404.5 -436v-424h-287v424q-178 133 -404.5 436t-226.5 442.5zM303 1137q0 -281 348 -650v424q0 150 -75.5 282t-143.5 132 q-129 0 -129 -188zM938 487q348 369 348 650q0 188 -129 188q-68 0 -143.5 -132t-75.5 -282v-424z" />
<glyph unicode="&#x425;" horiz-adv-x="1079" d="M25 1479h325l207 -453l141 299q37 78 96.5 116t110.5 38q43 0 63.5 -6.5t45.5 -30.5q-16 -57 -17 -303h-39q0 31 -5 52t-31.5 41.5t-75.5 20.5q-98 0 -148 -114l-94 -213l426 -926h-297l-280 584l-256 -584h-125l327 694z" />
<glyph unicode="&#x426;" horiz-adv-x="1290" d="M143 0v1479h287v-1428h383v1428h287v-1428h190v-51q-76 -66 -76 -328v-10h-43v10q0 113 -83.5 220.5t-225.5 107.5h-719z" />
<glyph unicode="&#x427;" horiz-adv-x="1140" d="M41 680q0 233 91 424.5t245 374.5h186q-92 -106 -170 -249t-78 -237q0 -111 37 -160t148 -49q96 0 211 115v580h286v-1479h-286v846q-82 -98 -274.5 -200.5t-321.5 -102.5q-74 0 -74 137z" />
<glyph unicode="&#x428;" horiz-adv-x="1923" d="M143 0v1479h287v-1428h389v1428h287v-1428h387v1428h287v-1479h-1637z" />
<glyph unicode="&#x429;" horiz-adv-x="1970" d="M143 0v1479h287v-1428h389v1428h287v-1428h387v1428h287v-1428h190v-51q-76 -66 -76 -328v-10h-43v10q0 113 -84 220.5t-225 107.5h-1399z" />
<glyph unicode="&#x42a;" horiz-adv-x="1355" d="M74 1427q2 35 0 52h862l-145 -533q180 -80 350 -338t170 -452q0 -74 -36 -115t-99 -41h-908l389 1427h-196q-78 0 -163 -96t-85 -190v-11h-43v11q0 202 -96 286zM551 51h272q86 0 128 36t42 130q0 88 -1 127t-6 121t-18.5 130t-37 109.5t-62.5 106.5t-92 80z" />
<glyph unicode="&#x42b;" horiz-adv-x="1247" d="M143 0v1479h287v-449q121 -53 279.5 -212t276.5 -349t118 -313q0 -74 -36 -115t-99 -41h-826zM430 51h186q86 0 128 36t42 130q0 197 -100 426t-256 330v-922zM817 950v529h287v-844q-135 196 -287 315z" />
<glyph unicode="&#x42c;" horiz-adv-x="1144" d="M143 0v1479h287v-449q121 -53 279.5 -212t276.5 -349t118 -313q0 -74 -36 -115t-99 -41h-826zM430 51h186q86 0 128 36t42 130q0 197 -100 426t-256 330v-922z" />
<glyph unicode="&#x42d;" horiz-adv-x="1134" d="M61 1176q0 10 15.5 16t42 14t45.5 25q20 18 44.5 84.5t59.5 111.5q41 55 123 86t150 91q33 -39 107.5 -118t121.5 -131t110.5 -138.5t101.5 -162t64.5 -178t26.5 -208.5q0 -94 -47 -178t-103.5 -132.5t-130 -108t-102.5 -95.5q-49 -61 -53 -209q-98 41 -221 159 q-72 68 -172 68q-10 0 -44 -8t-48 -8q-23 0 -27 4t-4 16q0 41 39 85t80 44q55 0 117.5 -44t86.5 -91q43 -78 140 -143q-23 43 -34 93t-12 78.5t1 78t2 55.5q0 74 43 153.5t103.5 165.5t82.5 142q-137 59 -229 59q-74 0 -110 -40t-54 -130q-47 10 -139.5 10t-151.5 -10 q31 45 59.5 77t79.5 70.5t125 59t166 20.5q137 0 270 -59q4 29 5 41q0 229 -49.5 355t-200.5 274q-23 -39 -41.5 -148.5t-61.5 -159.5q-41 -47 -120.5 -72.5t-137.5 -25.5q-43 0 -71.5 14.5t-38 27t-9.5 20.5z" />
<glyph unicode="&#x42e;" horiz-adv-x="1550" d="M143 0v1479h287v-623q82 55 213 33q86 274 240.5 459.5t320.5 185.5q125 0 203 -122t78 -277q0 -242 -87 -511.5t-240.5 -462t-321.5 -192.5q-92 0 -153.5 77t-85.5 180.5t-24 222.5q0 176 54 382q-106 16 -197 -36v-795h-287zM879 289q0 -55 29.5 -98.5t76.5 -43.5 q78 0 136.5 68t58.5 156v833q0 70 -32 124t-93 54q-74 0 -125 -78.5t-51 -175.5v-839z" />
<glyph unicode="&#x42f;" horiz-adv-x="1193" d="M41 0v10q0 121 80 257t196.5 247t231.5 194t203 126v6q-211 123 -420 319.5t-209 327.5q0 137 125 137q113 0 247 -47t256.5 -130t204.5 -213t82 -278v-956h-286v788q-168 -111 -258.5 -266t-90.5 -413q0 -51 11 -109h-373zM403 1350q0 -61 30 -124t89.5 -126.5 t106.5 -106.5t123 -104v217q0 168 -74 285.5t-146 117.5q-129 1 -129 -159z" />
<glyph unicode="&#x430;" horiz-adv-x="985" d="M41 84q0 205 133 403q37 55 79 107.5t95 105t85 83t93.5 85t73.5 66.5v100h262v-1034h-262v221q-78 -86 -227.5 -159.5t-266.5 -73.5q-65 0 -65 96zM281 317q0 -115 133 -114q86 0 186 69v605q-319 -324 -319 -560z" />
<glyph unicode="&#x431;" horiz-adv-x="989" d="M123 0v1034h790v-51q-76 -66 -75 -328v-10h-43v10q0 121 -65.5 224.5t-203.5 103.5h-141v-301q225 -53 386 -228t187 -454h-835zM385 51h100q176 0 177 185q0 145 -73 245.5t-204 145.5v-576z" />
<glyph unicode="&#x432;" horiz-adv-x="976" d="M123 0v672q0 135 117.5 247.5t268 167t277.5 54.5q100 0 101 -97q0 -82 -157 -237.5t-345 -249.5q485 -119 551 -557h-813zM385 51h254v12q0 352 -254 459v-471zM385 604q135 102 189.5 166t54.5 143q0 117 -107 117q-53 0 -95 -70.5t-42 -156.5v-199z" />
<glyph unicode="&#x433;" horiz-adv-x="831" d="M123 0v1034h708v-51q-76 -66 -75 -328v-10h-43v10q0 121 -65.5 224.5t-203.5 103.5h-59v-983h-262z" />
<glyph unicode="&#x434;" horiz-adv-x="1028" d="M0 0v51h154q0 422 458 858v125h262v-983h154v-51q-76 -66 -76 -328v-10h-43v10q0 121 -65.5 224.5t-202.5 103.5h-254q-137 0 -202.5 -103.5t-65.5 -224.5v-10h-43v10q0 262 -76 328zM215 51h397v791q-74 -80 -111.5 -123t-102 -131t-97.5 -159t-59.5 -172.5 t-26.5 -205.5z" />
<glyph unicode="&#x435;" horiz-adv-x="974" d="M61 483q0 131 51.5 236.5t109 160t155.5 130t137 112.5q57 -51 126 -75.5t101 -69.5q29 -37 49.5 -93.5t38.5 -70.5q12 -10 35 -18.5t36 -13.5t13 -15q0 -6 -11 -16.5t-34.5 -22.5t-52.5 -12q-47 0 -113.5 21.5t-101.5 60.5q-37 41 -52.5 132t-33.5 124 q-121 -100 -161 -200.5t-21 -250.5q102 43 219 43q104 0 182 -31.5t108.5 -62.5t61.5 -78h-262q-2 51 -31.5 85t-79.5 34q-74 0 -178 -37q20 -43 96 -153.5t76 -170.5q0 -4 1 -34.5t0 -45t-10 -45t-26 -61.5q78 53 105 102q53 98 147 99q35 0 67 -37t32 -72q0 -8 -1 -10 t-6.5 -4t-17.5 -2t-41 7t-37 7q-74 0 -119 -41q-102 -98 -184 -133q-4 102 -43 145q-25 27 -87 71t-111.5 81t-90.5 98t-41 127z" />
<glyph unicode="&#x436;" horiz-adv-x="1587" d="M45 57q0 201 348 430l264 175l-149 196q-49 66 -121 66q-68 0 -121 -41t-53 -92h-47q0 10 1 43.5t2 56t-3 52.5t-14 48q8 16 59 29.5t104 13.5q127 0 224 -127l114 -159h4v286h263v-286h4l114 159q96 127 224 127q53 0 104 -13t59 -30q-12 -25 -15 -57.5t-1 -87.5l2 -55 h-45q0 51 -53 92t-121 41q-74 0 -121 -66l-151 -196l264 -175q350 -231 350 -430q0 -33 -12 -57h-344q27 53 26 109q0 250 -149 378l-131 115h-4v-602h-263v602h-4l-131 -115q-147 -129 -147 -378q0 -55 26 -109h-344q-12 24 -12 57z" />
<glyph unicode="&#x437;" horiz-adv-x="868" d="M0 -127q59 102 141 147q35 20 76 33q23 6 82 20.5t94 28t78 39t63.5 68.5t20.5 104q0 84 -25.5 149.5t-72.5 65.5q-23 0 -39.5 -10t-20.5 -16t-12 -23h-82q16 39 52 67.5t86.5 55.5t72.5 47q59 51 59 197q0 98 -37.5 159.5t-95.5 61.5q-72 0 -108.5 -108.5t-18.5 -215.5 l-237 109q6 57 41 106q49 70 151 109q119 47 176 90q41 -43 123 -78q12 -6 58.5 -18t83 -30.5t57.5 -45.5q47 -59 47 -141q0 -94 -87 -173t-185 -91v-5q115 -10 206 -77.5t91 -214.5q0 -129 -117 -208t-264 -79q-33 0 -85.5 9t-86.5 9q-139 0 -226 -141h-59z" />
<glyph unicode="&#x438;" horiz-adv-x="1038" d="M123 0v1034h262v-418q80 66 158 191t102 227h270v-1034h-262v911h-2q-115 -252 -266 -352v-559h-262z" />
<glyph unicode="&#x439;" horiz-adv-x="1038" d="M123 0v1034h262v-418q80 66 158 191t102 227h270v-1034h-262v911h-2q-115 -252 -266 -352v-559h-262zM332 1174l92 157q78 -16 145 -16q113 0 267 33q-139 -174 -250 -174q-23 0 -65 5t-66 5q-72 0 -123 -10z" />
<glyph unicode="&#x43a;" horiz-adv-x="1038" d="M123 0v1034h262v-286h4l115 159q96 127 223 127q53 0 104.5 -13t59.5 -30q-12 -25 -15.5 -57.5t-1.5 -87.5l3 -55h-46q0 51 -53 92t-121 41q-74 0 -122 -66l-150 -196l264 -175q348 -229 348 -430q0 -33 -12 -57h-344q27 53 27 109q0 250 -148 378l-131 115h-4v-602h-262 z" />
<glyph unicode="&#x43b;" horiz-adv-x="972" d="M41 59q0 170 180 398.5t367 339.5v237h262v-1034h-262v748q-274 -225 -275 -480q0 -168 49 -268h-311q-10 16 -10 59z" />
<glyph unicode="&#x43c;" horiz-adv-x="1480" d="M20 59q0 170 179.5 398.5t365.5 339.5v237h262v-418q80 68 158 193t105 225h268v-1034h-262v928h-2q-121 -264 -267 -361v-567h-262v748q-145 -121 -208.5 -225.5t-63.5 -254.5q0 -168 47 -268h-311q-9 16 -9 59z" />
<glyph unicode="&#x43d;" horiz-adv-x="1038" d="M123 0v1034h262v-262q43 27 136 26t132 -26v262h262v-1034h-262v719q-43 27 -131 26.5t-137 -26.5v-719h-262z" />
<glyph unicode="&#x43e;" horiz-adv-x="929" d="M61 313q0 172 81 349.5t214 294t273 116.5q102 0 170.5 -86t68.5 -192q0 -170 -76.5 -357.5t-215 -322.5t-289.5 -135q-113 0 -169.5 101t-56.5 232zM342 223q0 -39 24.5 -68.5t63.5 -29.5q63 0 111.5 47t48.5 109v546q0 49 -26.5 87t-78.5 38q-57 0 -100 -55t-43 -123 v-551z" />
<glyph unicode="&#x43f;" horiz-adv-x="1038" d="M123 0v1034h792v-1034h-262v983h-268v-983h-262z" />
<glyph unicode="&#x440;" horiz-adv-x="974" d="M123 -475v1081q0 137 104.5 249t241.5 166t262 54q53 0 117.5 -307t64.5 -416q0 -39 -32.5 -80t-97 -83t-122 -72.5t-145.5 -75.5t-131 -68v-448h-262zM385 37q84 47 134 78.5t95 83t45 98.5q0 129 -54 394t-105 265t-83 -70.5t-32 -180.5v-668z" />
<glyph unicode="&#x441;" horiz-adv-x="978" d="M61 475q0 106 29 192.5t83 152t104.5 110.5t122 101t108.5 91q55 -49 161.5 -96t141.5 -92q43 -53 55 -119h-284q18 84 10 109.5t-84 128.5q-119 -100 -154 -181t-35 -251q0 -61 99.5 -205t99.5 -185v-23v-31q0 -9 -2 -30.5t-6 -37t-12.5 -38t-20.5 -42.5 q115 82 156 149.5t0 181.5h285q-25 -70 -99 -157q-141 -164 -391 -242q-4 102 -43 145q-25 27 -86 70t-109.5 79t-88.5 95t-40 125z" />
<glyph unicode="&#x442;" horiz-adv-x="993" d="M0 983v51h993v-51q-76 -63 -75 -287v-10h-44v10q0 115 -58 201t-187 86v-983h-260v983q-129 0 -189.5 -86t-60.5 -201v-10h-43v10q0 221 -76 287z" />
<glyph unicode="&#x443;" horiz-adv-x="952" d="M0 1034h281q197 -428 284 -938l318 938h69l-516 -1509h-65l161 475h-196q-49 264 -137 546.5t-199 487.5z" />
<glyph unicode="&#x444;" horiz-adv-x="1368" d="M61 311q0 186 168 426t324 338v404h262v-404q156 -98 324 -337.5t168 -426.5q0 -109 -139.5 -191.5t-352.5 -135.5v-459h-262v459q-213 53 -352.5 135.5t-139.5 191.5zM354 268q0 -139 199 -229v958q-74 -96 -136.5 -310t-62.5 -419zM815 39q199 90 199 229 q0 205 -62.5 419t-136.5 310v-958z" />
<glyph unicode="&#x445;" horiz-adv-x="901" d="M0 -297l369 739l-322 592h268l181 -334l67 138q10 20 28.5 69t31 77t42 52.5t68.5 24.5q23 0 34 -2t28.5 -11.5t21.5 -11.5l-22 -256q-39 55 -99 56q-41 0 -60.5 -10.5t-37.5 -45.5l-70 -141l344 -639h-264l-207 381l-335 -678h-66z" />
<glyph unicode="&#x446;" horiz-adv-x="1089" d="M123 0v1034h262v-983h268v983h262v-983h175v-51q-76 -66 -76 -328v-10h-43v10q0 121 -65.5 224.5t-203.5 103.5h-579z" />
<glyph unicode="&#x447;" horiz-adv-x="989" d="M41 473q0 147 73.5 300t161.5 261h252q-74 -102 -143.5 -227t-69.5 -172q0 -49 17.5 -66.5t73.5 -17.5q39 0 102 32.5t96 71.5v379h262v-1034h-262v592q-72 -74 -222.5 -144.5t-281.5 -70.5q-59 0 -59 96z" />
<glyph unicode="&#x448;" horiz-adv-x="1486" d="M123 0v1034h262v-983h227v983h262v-983h228v983h262v-1034h-1241z" />
<glyph unicode="&#x449;" horiz-adv-x="1517" d="M123 0v1034h262v-983h227v983h262v-983h228v983h262v-983h154v-51q-76 -66 -76 -328v-10h-43v10q0 121 -65.5 224.5t-203.5 103.5h-1007z" />
<glyph unicode="&#x44a;" horiz-adv-x="1001" d="M0 983v51h709l-101 -332q135 -82 246 -269t111 -324q0 -51 -29 -80t-80 -29h-717l307 983h-59q-137 0 -202.5 -103.5t-65.5 -224.5v-10h-43v10v17q0 245 -76 311zM401 51h146q29 0 52.5 7.5t37.5 15.5t25.5 28.5t16.5 32.5t7 42t3 43t0 50t-1 49q0 244 -98 332z" />
<glyph unicode="&#x44b;" horiz-adv-x="1050" d="M123 0v1034h262v-313q154 -57 348.5 -269t194.5 -343q0 -51 -29 -80t-80 -29h-696zM385 51h125q72 0 105.5 22.5t33.5 88.5q0 139 -71.5 287.5t-192.5 220.5v-619zM653 625v409h262v-692q-57 84 -133 166t-129 117z" />
<glyph unicode="&#x44c;" horiz-adv-x="968" d="M123 0v1034h262v-313q154 -57 348.5 -269t194.5 -343q0 -51 -29 -80t-80 -29h-696zM385 51h125q72 0 105.5 22.5t33.5 88.5q0 139 -71.5 287.5t-192.5 220.5v-619z" />
<glyph unicode="&#x44d;" horiz-adv-x="974" d="M61 766q0 10 13.5 15t36 13.5t34.5 18.5q18 14 39 70.5t49 93.5q33 45 101.5 69.5t126.5 75.5q39 -37 137 -112.5t155.5 -130t108.5 -160t51 -236.5q0 -66 -41 -127t-90 -98t-111.5 -81t-86.5 -71q-39 -43 -43 -145q-82 35 -185 133q-45 41 -118 41q-8 0 -37 -7t-41 -7 q-16 0 -20.5 3t-4.5 13q0 35 32 72t66 37q94 0 148 -99q27 -49 104 -102q-16 31 -25 61.5t-10 45t0 45t1 34.5q0 59 75.5 170t96.5 154q-104 37 -179 37q-49 0 -78.5 -34t-31.5 -85h-262q31 47 61.5 78t108 62.5t182.5 31.5q117 0 219 -43q18 150 -21.5 250t-160.5 201 q-18 -33 -33.5 -124t-52.5 -132q-35 -39 -101.5 -60.5t-113.5 -21.5q-29 0 -52.5 12t-35 22.5t-11.5 16.5z" />
<glyph unicode="&#x44e;" horiz-adv-x="1345" d="M123 0v1034h262v-434q72 37 176 23q82 195 216 322.5t267 127.5q102 0 171 -86t69 -192q0 -168 -79 -357.5t-212 -323.5t-270 -134q-113 0 -169 101t-56 232q0 127 47 258q-80 12 -160 -24v-547h-262zM768 207q0 -39 24.5 -68.5t63.5 -29.5q63 0 111.5 47t48.5 108v574 q0 49 -26.5 87t-78.5 38q-57 0 -100 -55.5t-43 -123.5v-577z" />
<glyph unicode="&#x44f;" horiz-adv-x="944" d="M20 0v6q0 326 539 580v4q-170 98 -305 218t-135 232q0 96 88 97q80 0 182.5 -34t200.5 -91.5t164.5 -148.5t66.5 -193v-670h-262v530q-51 -35 -87 -68.5t-76 -88t-60.5 -130t-20.5 -167.5q0 -39 7 -76h-302zM332 909q0 -43 23.5 -83t45 -60.5t81 -64.5t77.5 -58v115 q0 117 -44 190.5t-93 73.5q-90 0 -90 -113z" />
<glyph unicode="&#x451;" horiz-adv-x="974" d="M61 483q0 131 51.5 236.5t109 160t155.5 130t137 112.5q57 -51 126 -75.5t101 -69.5q29 -37 49.5 -93.5t38.5 -70.5q12 -10 35 -18.5t36 -13.5t13 -15q0 -6 -11 -16.5t-34.5 -22.5t-52.5 -12q-47 0 -113.5 21.5t-101.5 60.5q-37 41 -52.5 132t-33.5 124 q-121 -100 -161 -200.5t-21 -250.5q102 43 219 43q104 0 182 -31.5t108.5 -62.5t61.5 -78h-262q-2 51 -31.5 85t-79.5 34q-74 0 -178 -37q20 -43 96 -153.5t76 -170.5q0 -4 1 -34.5t0 -45t-10 -45t-26 -61.5q78 53 105 102q53 98 147 99q35 0 67 -37t32 -72q0 -8 -1 -10 t-6.5 -4t-17.5 -2t-41 7t-37 7q-74 0 -119 -41q-102 -98 -184 -133q-4 102 -43 145q-25 27 -87 71t-111.5 81t-90.5 98t-41 127zM188 1270l62 209h186l-61 -209h-187zM573 1270l62 209h186l-61 -209h-187z" />
<glyph unicode="&#x452;" horiz-adv-x="966" d="M57 1231v51h66v184h262v-184h326v-51h-326v-414q117 121 287 121q102 0 170.5 -86t68.5 -193q0 -170 -76.5 -357t-215 -322.5t-289.5 -135.5v43q100 0 201.5 100.5t101.5 239.5v465q0 49 -26.5 87t-78.5 38q-63 0 -143 -76v-741h-262v1231h-66z" />
<glyph unicode="&#x453;" horiz-adv-x="872" d="M123 0v1034h749v-51q-76 -66 -75 -328v-10h-43v10q0 121 -65.5 224.5t-203.5 103.5h-100v-983h-262zM303 1128l213 347h238l-353 -347h-98z" />
<glyph unicode="&#x454;" horiz-adv-x="978" d="M61 475q0 106 29 192.5t83 152t104.5 110.5t122 101t108.5 91q55 -49 161.5 -96t141.5 -92q43 -53 55 -119h-284q18 84 10 109.5t-84 128.5q-119 -100 -154 -181t-35 -251v-11h371v-51h-356q18 -49 101 -168t83 -160v-23v-31q0 -9 -2 -30.5t-6 -37t-12.5 -38t-20.5 -42.5 q115 82 156 149.5t0 181.5h285q-25 -70 -99 -157q-141 -164 -391 -242q-4 102 -43 145q-25 27 -86 70t-109.5 79t-88.5 95t-40 125z" />
<glyph unicode="&#x455;" horiz-adv-x="978" d="M61 475q0 106 29 192.5t83 152t104.5 110.5t122 101t108.5 91q55 -49 161.5 -96t141.5 -92q43 -53 55 -119h-284q13 58 12 88q0 13 -2 22q-8 26 -84 128q-119 -100 -154 -181t-35 -251q0 -61 99.5 -205t99.5 -185v-23v-31q0 -9 -2 -30.5t-6 -37t-12.5 -38t-20.5 -42.5 q115 82 156 149q20 34 20 79.5t-20 102.5h285q-25 -70 -99 -157q-141 -164 -391 -242q-4 102 -43 145q-25 27 -86 70t-109.5 79t-88.5 95t-40 125z" />
<glyph unicode="&#x457;" horiz-adv-x="507" d="M-59 1270l61 209h186l-61 -209h-186zM123 0v1034h262v-1034h-262zM326 1270l61 209h186l-61 -209h-186z" />
<glyph unicode="&#x459;" horiz-adv-x="1415" d="M20 59q0 170 180.5 398.5t366.5 339.5v237h262v-313q154 -57 348.5 -269t194.5 -343q0 -51 -28.5 -80t-79.5 -29h-697v748q-274 -225 -274 -480q0 -168 49 -268h-311q-11 16 -11 59zM829 51h125q72 0 106 22.5t34 88.5q0 139 -72 287.5t-193 220.5v-619z" />
<glyph unicode="&#x45a;" horiz-adv-x="1515" d="M123 0v1034h262v-262q43 27 136 26t132 -26v262h262v-313q154 -57 348.5 -269t194.5 -343q0 -51 -28.5 -80t-79.5 -29h-697v719q-43 27 -131 26.5t-137 -26.5v-719h-262zM915 51h125q72 0 106 22.5t34 88.5q0 139 -72 287.5t-193 220.5v-619z" />
<glyph unicode="&#x45b;" horiz-adv-x="1011" d="M57 1231v51h66v184h262v-184h346v-51h-346v-434q143 0 271 -111t202 -280.5t74 -346.5q0 -43 -10 -59h-312q49 100 49 288.5t-73.5 324t-200.5 135.5v-748h-262v1231h-66z" />
<glyph unicode="&#x45c;" horiz-adv-x="1038" d="M123 0v1034h262v-286h4l115 159q96 127 223 127q53 0 104.5 -13t59.5 -30q-12 -25 -15.5 -57.5t-1.5 -87.5l3 -55h-46q0 51 -53 92t-121 41q-74 0 -122 -66l-150 -196l264 -175q348 -229 348 -430q0 -33 -12 -57h-344q27 53 27 109q0 250 -148 378l-131 115h-4v-602h-262 zM406 1128l212 347h238l-352 -347h-98z" />
<glyph unicode="&#x45e;" horiz-adv-x="952" d="M0 1034h281q197 -428 284 -938l318 938h69l-516 -1509h-65l161 475h-196q-49 264 -137 546.5t-199 487.5zM332 1174l92 157q78 -16 145 -16q113 0 267 33q-139 -174 -250 -174q-23 0 -65 5t-66 5q-72 0 -123 -10z" />
<glyph unicode="&#x45f;" horiz-adv-x="1089" d="M123 0v1034h262v-983h262v983h262v-1034h-262v-246h-262v246h-262z" />
<glyph unicode="&#x2000;" horiz-adv-x="972" />
<glyph unicode="&#x2001;" horiz-adv-x="1947" />
<glyph unicode="&#x2002;" horiz-adv-x="972" />
<glyph unicode="&#x2003;" horiz-adv-x="1947" />
<glyph unicode="&#x2004;" horiz-adv-x="649" />
<glyph unicode="&#x2005;" horiz-adv-x="485" />
<glyph unicode="&#x2006;" horiz-adv-x="323" />
<glyph unicode="&#x2007;" horiz-adv-x="323" />
<glyph unicode="&#x2008;" horiz-adv-x="241" />
<glyph unicode="&#x2009;" horiz-adv-x="389" />
<glyph unicode="&#x200a;" horiz-adv-x="106" />
<glyph unicode="&#x2010;" horiz-adv-x="819" d="M23 651q23 49 43 82t55 59.5t55.5 39t79.5 42.5h416q18 0 35.5 7.5t40 24t28.5 20.5q-8 -86 -55 -144.5t-133 -109.5h-453q-61 -3 -112 -21z" />
<glyph unicode="&#x2011;" horiz-adv-x="819" d="M23 651q23 49 43 82t55 59.5t55.5 39t79.5 42.5h416q18 0 35.5 7.5t40 24t28.5 20.5q-8 -86 -55 -144.5t-133 -109.5h-453q-61 -3 -112 -21z" />
<glyph unicode="&#x2012;" horiz-adv-x="819" d="M23 651q23 49 43 82t55 59.5t55.5 39t79.5 42.5h416q18 0 35.5 7.5t40 24t28.5 20.5q-8 -86 -55 -144.5t-133 -109.5h-453q-61 -3 -112 -21z" />
<glyph unicode="&#x2013;" horiz-adv-x="1024" d="M23 651q23 49 43 82t55 59.5t55.5 39t79.5 42.5h621q18 0 35.5 7.5t40 24t28.5 20.5q-8 -86 -55 -144.5t-133 -109.5h-658q-61 -3 -112 -21z" />
<glyph unicode="&#x2014;" horiz-adv-x="2048" d="M23 651q23 49 43 82t55 59.5t55.5 39t79.5 42.5h1645q18 0 35.5 7.5t40 24t28.5 20.5q-8 -86 -55 -144.5t-133 -109.5h-1682q-61 -3 -112 -21z" />
<glyph unicode="&#x2018;" horiz-adv-x="569" d="M100 977l230 502h139l-131 -502h-238z" />
<glyph unicode="&#x2019;" horiz-adv-x="569" d="M100 977l131 502h238l-229 -502h-140z" />
<glyph unicode="&#x201a;" horiz-adv-x="569" d="M207 -274l131 501h237l-229 -501h-139z" />
<glyph unicode="&#x201c;" horiz-adv-x="1138" d="M211 977l229 502h140l-131 -502h-238zM592 977l229 502h140l-132 -502h-237z" />
<glyph unicode="&#x201d;" horiz-adv-x="1138" d="M225 977l131 502h238l-229 -502h-140zM606 977l131 502h238l-230 -502h-139z" />
<glyph unicode="&#x201e;" horiz-adv-x="1138" d="M207 -274l131 501h237l-229 -501h-139zM588 -274l131 501h237l-229 -501h-139z" />
<glyph unicode="&#x2026;" horiz-adv-x="2048" d="M160 0l61 246h238l-62 -246h-237zM844 0l61 246h238l-62 -246h-237zM1528 0l61 246h238l-62 -246h-237z" />
<glyph unicode="&#x202f;" horiz-adv-x="389" />
<glyph unicode="&#x2039;" horiz-adv-x="614" d="M98 475l391 332l27 -23l-197 -309l183 -330l-23 -26z" />
<glyph unicode="&#x203a;" horiz-adv-x="614" d="M96 784l27 23l391 -332l-381 -356l-22 26l182 330z" />
<glyph unicode="&#x205f;" horiz-adv-x="485" />
<glyph unicode="&#x2122;" horiz-adv-x="1638" d="M123 1458q2 18 0 25h606v-25q-47 -43 -47 -143v-6h-23v6q0 51 -43 97t-100 46h-18v-715h-144v715h-16q-45 0 -95 -48t-50 -95v-6h-21v6q0 102 -49 143zM643 778q0 123 109.5 282t224.5 238v179h143v-299q143 139 178 299h148v-740h-143v662q-72 -170 -183 -256v-406h-143 v535q-88 -86 -128 -161t-44 -183q-2 -113 31 -191h-187q-6 10 -6 41z" />
<glyph unicode="&#xe000;" horiz-adv-x="500" d="M0 0v0v0v0v0z" />
</font>
</defs>
</svg>
